<?xml version="1.0" encoding="UTF-8"?>
<svg viewBox="0 0 481.88977 340.15747" xmlns="http://www.w3.org/2000/svg" xmlns:xlink="http://www.w3.org/1999/xlink">
 <defs>
  <filter id="n" x="-.10316" y="-.07225" width="1.2063" height="1.1445">
   <feGaussianBlur stdDeviation="1.08228"/>
  </filter>
  <filter id="m" x="-.11954" y="-.08392" width="1.2391" height="1.1678">
   <feGaussianBlur stdDeviation="1.26015"/>
  </filter>
  <linearGradient id="a">
   <stop stop-color="#ffa762" offset="0"/>
   <stop stop-color="#ff2a2a" offset="1"/>
  </linearGradient>
  <linearGradient id="d" x1="184.55" x2="193.38" y1="215.39" y2="223.37" gradientUnits="userSpaceOnUse" spreadMethod="reflect">
   <stop stop-color="#e4e7ea" offset="0"/>
   <stop stop-color="#9faab2" offset="1"/>
  </linearGradient>
  <radialGradient id="c" cx="169.39" cy="185.51" r="11.72" fx="164.34" fy="188.52" gradientTransform="matrix(1.0489 -.015483 .020329 1.3772 12.346 -38.779)" gradientUnits="userSpaceOnUse">
   <stop stop-color="#fffff5" offset="0"/>
   <stop stop-color="#eceeea" offset=".77358"/>
   <stop stop-color="#dadde0" offset="1"/>
  </radialGradient>
  <radialGradient id="b" cx="157.13" cy="198.6" r="6.5003" gradientTransform="matrix(1 0 0 .79256 0 42.42)" gradientUnits="userSpaceOnUse">
   <stop stop-color="#fff" offset="0"/>
   <stop stop-color="#fff" stop-opacity="0" offset="1"/>
  </radialGradient>
  <radialGradient id="l" cx="76.785" cy="297.84" r="40.804" fy="304.06" gradientTransform="matrix(1.7198 2.8872e-7 -1.2882e-7 .86716 14.712 13.799)" gradientUnits="userSpaceOnUse">
   <stop stop-color="#7d0000" offset="0"/>
   <stop stop-color="#1d0000" offset="1"/>
  </radialGradient>
  <radialGradient id="g" cx="267.31" cy="190.07" r="113.51" fx="278.49" fy="128.8" gradientTransform="matrix(.85516 -.60382 -.35016 -.49591 67.472 1510.9)" gradientUnits="userSpaceOnUse" spreadMethod="reflect">
   <stop stop-color="#efd785" offset="0"/>
   <stop stop-color="#ca7d45" offset="1"/>
  </radialGradient>
  <radialGradient id="k" cx="78.84" cy="356.32" r="45.359" fx="82.439" fy="377.94" gradientTransform="matrix(.30432 -.045558 .045969 .19152 106.92 214.64)" gradientUnits="userSpaceOnUse" xlink:href="#a" spreadMethod="reflect"/>
  <radialGradient id="j" cx="283.39" cy="227.71" r="16.845" gradientTransform="matrix(2.8699 0 0 1.071 -575.24 -84.38)" gradientUnits="userSpaceOnUse" xlink:href="#a"/>
  <radialGradient id="i" cx="375.12" cy="274.83" r="52.484" gradientTransform="matrix(.8274 .4721 -.58143 1.019 204.11 -244.88)" gradientUnits="userSpaceOnUse" xlink:href="#a" spreadMethod="reflect"/>
  <radialGradient id="h" cx="267.15" cy="184.75" r="59.4" gradientTransform="matrix(1.7791 0 0 .90351 -245.98 -80.014)" gradientUnits="userSpaceOnUse" xlink:href="#a"/>
  <radialGradient id="f" cx="286.06" cy="227.23" r="16.845" fx="290.96" fy="218.66" gradientTransform="matrix(-2.373 1.6776 .47284 .96091 614.81 -515.19)" gradientUnits="userSpaceOnUse" xlink:href="#a"/>
  <radialGradient id="e" cx="254.51" cy="261.46" r="26.094" gradientTransform="matrix(1.778 0 0 1.6719 -231.73 -226.68)" gradientUnits="userSpaceOnUse" xlink:href="#a"/>
 </defs>
 <path d="m176.36 218.02c10.632 5.1063 11.555 18.602 19.086 26.712 2.3539 4.0603 14.531 16.294 9.4044 5.0445-1.2278-7.0206-8.9096-21.231-3.0542-24.345 7.4882 5.2169 11.408 21.862 22.944 17.237-2.9772-10.929-0.09717-24.293 16.921-23.769 8.0831 1.6464-37.308-31.024 14.408-13.856-11.992-5.6824-20.216-15.278-24.739-27.436-7.9667-11.954-24.762-7.7048-29.099 4.9548-6.925 13.121-22.835 20.051-25.871 35.457z" fill="url(#e)" fill-rule="evenodd" stroke="#000" stroke-width="1.778"/>
 <path d="m92.914 159.99c-9.3092-4.283-23.62 2.3894-30.519 13.297-5.1035 25.782-18.311 26.607-18.808 46.418 0.30782-10.57-2.571-23.325 3.0215-32.986-10.854 9.2797-18.574 13.597-20.24 29.072-7.5083-18.001 1.8995-25.459 0.87667-26.663-2.4139-2.8402-9.2597 2.007-19.554 13.631 4.6429-13.344 22.104-30.587 34.178-37.715 15.652-8.2411 32.932-10.431 46.542-5.4456 1.4281 0.32525 2.9266 0.52404 4.5033 0.39112z" fill="url(#f)" fill-rule="evenodd" stroke="#000" stroke-width="2.5825"/>
 <path d="m161.18 63.439c-11.564 0.18141-23.768 4.4257-36.671 14.224-6.0946 1.4718-16.08 8.953-26.725 14.613-46.226 26.486-23.023 63.513-34.638 74.183-27.257 25.04 30.194 53.131 68.586 73.192 41.987-26.288 43.709 13.855 74.866-28.146 29.614-46.194 60.222-64.57 87.985-26.775 7.4341 31.854 89.044-13.999 18.67-23.613-19.273-5.8898-32.824-16.598-41.442-31.389-23.099-28.981-81.079-66.754-110.63-66.29z" fill="url(#g)" fill-rule="evenodd" stroke="#000" stroke-width="1.778"/>
 <path transform="matrix(1.627 -.11794 .11252 1.7054 -243.43 -201.35)" d="m205.1 212.62a11.72 16.994 0 1 1 -23.44 0 11.72 16.994 0 1 1 23.44 0z" fill="url(#c)" stroke="url(#d)" stroke-dashoffset="11.733" stroke-linecap="round" stroke-width=".8"/>
 <path transform="matrix(1.627 -.11794 .11252 1.7054 -243.43 -201.35)" d="m193.45 198.76v28.928m4.9785-26.99-9.9569 25.052m13.601-19.758-17.246 14.464m18.58-7.2319-19.914 2e-5m18.58 7.2319-17.246-14.464m13.601 19.758-9.9569-25.052" fill="#fff" fill-rule="evenodd" filter="url(#m)" stroke="#fff" stroke-width="1.1936"/>
 <path transform="matrix(1.1714 -.08492 .1054 1.5975 -110.32 -169.39)" d="m163.63 201.52c0 3.7815-2.9103 6.847-6.5003 6.847s-6.5003-3.0655-6.5003-6.847 2.9103-6.847 6.5003-6.847 6.5003 3.0655 6.5003 6.847z" fill="#000060"/>
 <path transform="matrix(.71587 -.05189 .07121 1.0794 -31.92 -73.438)" d="m163.63 201.52c0 3.7815-2.9103 6.847-6.5003 6.847s-6.5003-3.0655-6.5003-6.847 2.9103-6.847 6.5003-6.847 6.5003 3.0655 6.5003 6.847z" fill="url(#b)"/>
 <path transform="matrix(1.149 -.50837 .48786 1.2115 -184.58 -63.914)" d="m145.09 226.13c0 0.81374-0.65966 1.4734-1.4734 1.4734s-1.4734-0.65966-1.4734-1.4734 0.65966-1.4734 1.4734-1.4734 1.4734 0.65966 1.4734 1.4734z" fill="#fff"/>
 <path transform="matrix(.54069 -.23923 .22958 .57011 -37.574 45.261)" d="m145.09 226.13c0 0.81374-0.65966 1.4734-1.4734 1.4734s-1.4734-0.65966-1.4734-1.4734 0.65966-1.4734 1.4734-1.4734 1.4734 0.65966 1.4734 1.4734z" fill="#fff"/>
 <path transform="matrix(1.9619 .20601 -.21224 1.9042 -194 -307.34)" d="m205.1 212.62a11.72 16.994 0 1 1 -23.44 0 11.72 16.994 0 1 1 23.44 0z" fill="url(#c)" stroke="url(#d)" stroke-dashoffset="11.733" stroke-linecap="round" stroke-width=".8"/>
 <path transform="matrix(1.9619 .20601 -.21224 1.9042 -194 -307.34)" d="m193.45 198.76v28.928m4.9785-26.99-9.9569 25.052m13.601-19.758-17.246 14.464m18.58-7.2319-19.914 2e-5m18.58 7.2319-17.246-14.464m13.601 19.758-9.9569-25.052" fill="#fff" fill-rule="evenodd" filter="url(#n)" stroke="#fff" stroke-width="1.1936"/>
 <path transform="matrix(1.4126 .14833 -.19881 1.7837 -41.928 -244.59)" d="m163.63 201.52c0 3.7815-2.9103 6.847-6.5003 6.847s-6.5003-3.0655-6.5003-6.847 2.9103-6.847 6.5003-6.847 6.5003 3.0655 6.5003 6.847z" fill="#000060"/>
 <path transform="matrix(.86323 .09064 -.13433 1.2052 31.971 -122.56)" d="m163.63 201.52c0 3.7815-2.9103 6.847-6.5003 6.847s-6.5003-3.0655-6.5003-6.847 2.9103-6.847 6.5003-6.847 6.5003 3.0655 6.5003 6.847z" fill="url(#b)"/>
 <path transform="matrix(1.4718 -.32337 .33513 1.437 -151.8 -143.59)" d="m145.09 226.13c0 0.81374-0.65966 1.4734-1.4734 1.4734s-1.4734-0.65966-1.4734-1.4734 0.65966-1.4734 1.4734-1.4734 1.4734 0.65966 1.4734 1.4734z" fill="#fff"/>
 <path transform="matrix(.6926 -.15217 .15771 .67623 1.135 7.1904)" d="m145.09 226.13c0 0.81374-0.65966 1.4734-1.4734 1.4734s-1.4734-0.65966-1.4734-1.4734 0.65966-1.4734 1.4734-1.4734 1.4734 0.65966 1.4734 1.4734z" fill="#fff"/>
 <g transform="matrix(1.4426 0 .21839 1.8846 -144.66 -297.44)" fill-rule="evenodd">
  <path d="m172.96 263.94c-1.137-0.4289-4.6448-0.45398-6.4632-0.84104-2.3521-0.50067-3.1953-2.2483-5.4876-2.7362-0.25166-0.05356-0.49796-0.13249-0.74693-0.19873-1.6742-0.44546-3.3672-0.83598-5.0418-1.1924-1.7656-0.37581-3.4865-0.62287-5.2285-0.99367-1.6549-0.35227-3.1939-0.79495-4.855-0.79495-1.4867 0-2.9567-0.39748-4.4816-0.39748-1.7263 0-3.844-0.19191-5.2285 0.39748-0.90276 0.38431-2.5946 0.39747-3.5479 0.39747-1.2508 0-2.5222 0.59621-3.9214 0.59621-1.2913 0-3.0991 0.67554-4.2948 0.99369-1.3884 0.3694-1.5443 0.61227-1.8673 1.9874-0.33729 1.4359-2.7962 1.046-3.478 2.2552-0.58085 1.0303-1.3907 2.3345-1.3907 3.7376 0 1.0026 2.847 3.4341 3.1881 4.3415 0.47819 1.2723 1.3544 1.9882 2.0541 2.981 0.95716 1.3583 2.1224 1.9767 3.5479 2.5836 1.2306 0.5239 2.6969 1.8766 3.5479 2.7823 0.92356 0.98294 1.8272 1.7673 2.9877 2.3848 1.1781 0.6269 2.7467 1.2277 4.1081 1.5899 1.9688 0.52384 3.9023 1.8332 5.9754 2.3848 1.7422 0.46355 3.7887 0.99368 5.602 0.99368 1.783 0 3.4366 0.19874 5.2285 0.19874 1.476 0 2.5279-0.94775 3.7346-1.5899 1.3824-0.73561 2.8213-1.0153 3.9214-2.1861 1.0612-1.1294 2.0851-2.2522 2.6142-3.3785 0.46014-0.97944 1.4589-1.9502 2.0541-2.5836 0.82027-0.873 1.8015-1.894 2.4275-2.7823 0.82465-1.1702 1.6352-2.3365 2.4275-3.1798 0.52966-0.5637 1.15-1.8518 1.4939-2.5836 0.40992-0.87255 1.9558-2.1129 2.4275-2.7823 0.99232-1.4082 0.23077-2.3848-1.3071-2.3848z" fill="url(#l)"/>
  <path d="m144.47 250.34c-1.2274 4.1374-7.022 4.7665-9.787 5.3406-2.8205 0.5856-8.3199-1.2831-9.8744-4.2185-3.0729 5.2404-7.3347 13.34-13.023 10.903 0.91752 1.3544 2.6632 4.0844 3.6365 4.7808 5.0293 7.7046 9.5411 18.855 21.575 26.514 4.2873 2.7288 14.019 2.7393 27.645-12.618 3.774-4.2536 6.4365-8.089 12.937-18.832-3.0992 1.3225-11.109 0.43064-18.39-3.1938-7.1803-3.5743-9.1602-4.9889-14.72-8.6756zm-15.802 13.775c6.2738 4.5744 10.671 0.78323 14.736-1.3999 6.3918-1.1894 22.748 4.7812 29.411 2.9771-0.79833 2.7352-4.9959 6.2443-9.8662 10.1-16.671 15.933-29.343 7.4972-38.698-0.20243-3.2905-4.1304-4.5505-6.7549-6.2298-9.4964 4.723-3.1082 5.0923-5.3354 10.647-1.9785z" fill="url(#k)"/>
 </g>
 <path d="m120.85 98.951c-21.518-49.379 31.591-46.842 61.144-61.638-32.142 49.244 10.49 6.3128 45.862 7.8439-13.744 2.9138-35.934 26.669-7.2296 18.449 19.033-6.2138 31.179-22.922 59.02-11.251-13.965-1.7179-48.526 40.742-11.677 37.833 14.945-1.457 28.425-0.70831 47.472 17.433-13.028-3.2422-70.993-2.5044-14.829 27.274-25.68-7.703-21.844 18.932-54.922-16.96-25.085-35.155-61.505-50.347-101.11-39.955-16.068 2.785-22.485 11.874-23.732 20.973z" fill="url(#h)" fill-rule="evenodd" stroke="#000" stroke-width="1.795"/>
 <path d="m347.34 149.71c46.313-23.643 81.709 3.8414 130.29 9.2953-84.875-3.9596-162.85 44.104-146.12 155.38-47.694-83.309-28.479-110.56-36.76-130.42 18.25 20.245 38.291-2.4507 24.012-20.914l28.57-13.343z" fill="url(#i)" fill-rule="evenodd" stroke="#000" stroke-width="1.778"/>
 <path d="m191.14 168.82c6.4617-8.9832 22.248-11.832 33.254-6.8455 14.725 7.7503 21.923 20.252 40.848 19.019-13.911-8.82-9.1768-13.915-18.46-18.635 11.767-6.6804 23.127 5.3758 31.49 11.478-0.79479-7.7468-15.731-17.719-15.345-19.312 0.91188-3.7595 9.1944-3.7533 23.563-0.15967-10.058-8.3199-33.338-12.37-47.317-11.206-17.682 2.3354-34.153 10.626-44.164 22.704-1.1378 1.1038-2.3946 2.1441-3.868 2.9559z" fill="url(#j)" fill-rule="evenodd" stroke="#000" stroke-width="2.5825"/>
</svg>
